<svg width="64" height="64" viewBox="0 0 64 64" fill="none" xmlns="http://www.w3.org/2000/svg">
<g clip-path="url(#clip0_4113_354)">
<path d="M40.3989 59.4284C42.7471 59.4284 44.6511 57.382 44.6511 54.8572C44.6511 52.3324 42.7471 50.2856 40.3989 50.2856C38.0502 50.2856 36.1462 52.3324 36.1462 54.8572C36.1462 57.382 38.0502 59.4284 40.3989 59.4284Z" fill="#1074D8"/>
<path d="M4.2525 41.1428V45.7144H14.0035L0 60.768L3.00651 64L17.01 48.9464V59.4284H21.2625V41.1428H4.2525Z" fill="#1074D8"/>
<path d="M40.3989 13.7144C42.7471 13.7144 44.6511 11.6677 44.6511 9.14293C44.6511 6.61821 42.7471 4.57153 40.3989 4.57153C38.0502 4.57153 36.1462 6.61821 36.1462 9.14293C36.1462 11.6677 38.0502 13.7144 40.3989 13.7144Z" fill="#1074D8"/>
<path d="M4.2525 36.5713C6.60108 36.5713 8.50497 34.5246 8.50497 31.9999C8.50497 29.4752 6.60108 27.4285 4.2525 27.4285C1.90391 27.4285 0 29.4752 0 31.9999C0 34.5246 1.90391 36.5713 4.2525 36.5713Z" fill="#1074D8"/>
<path d="M55.2825 22.8572C53.4019 22.8632 51.5764 23.5396 50.0922 24.7805C48.6075 26.0214 47.5478 27.7566 47.0793 29.7143H37.9705C37.6695 28.4253 37.1082 27.2232 36.3268 26.1932C35.5455 25.1632 34.5631 24.3306 33.449 23.7541C32.335 23.1777 31.1168 22.8717 29.8805 22.8577C28.6443 22.8437 27.4203 23.1221 26.2952 23.6732L19.5401 14.5989C20.6514 13.0302 21.2562 11.1146 21.2624 9.14288C21.2624 7.33456 20.7636 5.56688 19.8291 4.06336C18.8945 2.55983 17.5662 1.38796 16.0121 0.695964C14.4581 0.00396135 12.748 -0.177098 11.0982 0.175682C9.44838 0.52846 7.93296 1.39923 6.74349 2.67788C5.55405 3.95654 4.74404 5.58564 4.41586 7.35916C4.08771 9.13272 4.25612 10.971 4.89984 12.6417C5.54356 14.3123 6.63368 15.7402 8.0323 16.7449C9.43096 17.7495 11.0753 18.2857 12.7574 18.2857C13.9564 18.2827 15.1409 18.0045 16.2317 17.4697L22.9847 26.544C21.8732 28.1126 21.2685 30.0282 21.2624 32C21.2557 34.225 22.0057 36.376 23.3712 38.0481C24.7367 39.7202 26.6237 40.798 28.677 41.0788C30.7302 41.36 32.8081 40.8244 34.5197 39.5732C36.2313 38.3221 37.4585 36.4416 37.9705 34.2857H47.0793C47.4797 35.9373 48.3028 37.4351 49.4551 38.609C50.6079 39.7829 52.0434 40.586 53.5988 40.9268C55.1545 41.268 56.7679 41.1332 58.2559 40.5376C59.7439 39.9426 61.047 38.9107 62.0166 37.5595C62.9867 36.2082 63.5846 34.5917 63.7428 32.8935C63.9009 31.1952 63.6129 29.4834 62.9119 27.9522C62.2105 26.421 61.1236 25.1319 59.7751 24.2313C58.4267 23.3307 56.8698 22.8546 55.2825 22.8572ZM12.7574 13.7143C11.9164 13.7143 11.0942 13.4462 10.3949 12.9439C9.69556 12.4416 9.15048 11.7276 8.82862 10.8923C8.50676 10.057 8.42255 9.1378 8.58665 8.251C8.75074 7.36424 9.15573 6.54968 9.75044 5.91036C10.3452 5.27104 11.1029 4.83568 11.9278 4.65928C12.7527 4.48288 13.6077 4.5734 14.3848 4.9194C15.1618 5.2654 15.826 5.85136 16.2933 6.60312C16.7605 7.35488 17.0099 8.23872 17.0099 9.14288C17.0088 10.3549 16.5604 11.517 15.7631 12.374C14.9659 13.231 13.8849 13.7131 12.7574 13.7143ZM29.7674 36.5714C28.9263 36.5714 28.1042 36.3033 27.4048 35.801C26.7055 35.2987 26.1604 34.5847 25.8386 33.7494C25.5167 32.9141 25.4325 31.9949 25.5966 31.1082C25.7607 30.2214 26.1657 29.4068 26.7604 28.7675C27.3551 28.1282 28.1129 27.6928 28.9377 27.5164C29.7627 27.34 30.6177 27.4306 31.3948 27.7766C32.1718 28.1226 32.8359 28.7085 33.3032 29.4602C33.7705 30.212 34.0199 31.0959 34.0199 32C34.0188 33.212 33.5704 34.3741 32.7731 35.2312C31.9759 36.0882 30.8949 36.5702 29.7674 36.5714ZM55.2825 36.5714C54.4412 36.5714 53.6192 36.3033 52.9197 35.801C52.2205 35.2987 51.6754 34.5847 51.3536 33.7494C51.0317 32.9141 50.9476 31.9949 51.1117 31.1082C51.2758 30.2214 51.6806 29.4068 52.2752 28.7675C52.8702 28.1282 53.6278 27.6928 54.4527 27.5164C55.2777 27.34 56.1327 27.4306 56.9097 27.7766C57.6866 28.1226 58.3508 28.7085 58.8181 29.4602C59.2855 30.212 59.5348 31.0959 59.5348 32C59.5337 33.212 59.0853 34.3741 58.2879 35.2312C57.4909 36.0882 56.4099 36.5702 55.2825 36.5714Z" fill="#1074D8"/>
</g>
<defs>
<clipPath id="clip0_4113_354">
<rect width="64" height="64" fill="white"/>
</clipPath>
</defs>
</svg>
