<svg width="50" height="60" viewBox="0 0 50 60" fill="none" xmlns="http://www.w3.org/2000/svg">
<path d="M40.625 0H9.375C6.88859 0 4.50402 0.94821 2.74587 2.63604C0.987719 4.32386 0 6.61305 0 9V51C0 53.3869 0.987719 55.6762 2.74587 57.3641C4.50402 59.0516 6.88859 60 9.375 60H40.625C43.1113 60 45.4961 59.0516 47.2543 57.3641C49.0121 55.6762 50 53.3869 50 51V9C50 6.61305 49.0121 4.32386 47.2543 2.63604C45.4961 0.94821 43.1113 0 40.625 0ZM43.75 51C43.75 51.7957 43.4207 52.5589 42.8348 53.1214C42.2488 53.6839 41.4539 54 40.625 54H9.375C8.54621 54 7.75133 53.6839 7.16527 53.1214C6.57926 52.5589 6.25 51.7957 6.25 51V9C6.25 8.20436 6.57926 7.44127 7.16527 6.87866C7.75133 6.31609 8.54621 6 9.375 6H40.625C41.4539 6 42.2488 6.31609 42.8348 6.87866C43.4207 7.44127 43.75 8.20436 43.75 9V51Z" fill="#1074D8"/>
</svg>
