<svg width="50.000000" height="60.000000" viewBox="0 0 50 60" fill="none" xmlns="http://www.w3.org/2000/svg" xmlns:xlink="http://www.w3.org/1999/xlink">
	<desc>
			Created with Pixso.
	</desc>
	<defs>
		<clipPath id="clip33_595">
			<rect id="Frame" rx="-0.500000" width="49.000000" height="59.000000" transform="translate(0.500000 0.500000)" fill="white" fill-opacity="0"/>
		</clipPath>
	</defs>
	<rect id="Frame" rx="-0.500000" width="49.000000" height="59.000000" transform="translate(0.500000 0.500000)" fill="#FFFFFF" fill-opacity="0"/>
	<g clip-path="url(#clip33_595)">
		<path id="Vector" d="M40.62 0L9.37 0C6.88 0 4.5 0.94 2.74 2.63C0.98 4.32 0 6.61 0 9L0 51C0 53.38 0.98 55.67 2.74 57.36C4.5 59.05 6.88 60 9.37 60L40.62 60C43.11 60 45.49 59.05 47.25 57.36C49.01 55.67 50 53.38 50 51L50 9C50 6.61 49.01 4.32 47.25 2.63C45.49 0.94 43.11 0 40.62 0ZM43.75 51C43.75 51.79 43.42 52.55 42.83 53.12C42.24 53.68 41.45 54 40.62 54L9.37 54C8.54 54 7.75 53.68 7.16 53.12C6.57 52.55 6.25 51.79 6.25 51L6.25 9C6.25 8.2 6.57 7.44 7.16 6.87C7.75 6.31 8.54 6 9.37 6L40.62 6C41.45 6 42.24 6.31 42.83 6.87C43.42 7.44 43.75 8.2 43.75 9L43.75 51Z" fill="#1074D8" fill-opacity="1.000000" fill-rule="nonzero"/>
		<path id="Vector" d="M25 48C27.58 48 29.68 45.98 29.68 43.5C29.68 41.01 27.58 39 25 39C22.41 39 20.31 41.01 20.31 43.5C20.31 45.98 22.41 48 25 48Z" fill="#1074D8" fill-opacity="1.000000" fill-rule="nonzero"/>
		<path id="Vector" d="M32.81 12L17.18 12C16.35 12 15.56 12.31 14.97 12.87C14.39 13.44 14.06 14.2 14.06 15C14.06 15.79 14.39 16.55 14.97 17.12C15.56 17.68 16.35 18 17.18 18L32.81 18C33.64 18 34.43 17.68 35.02 17.12C35.6 16.55 35.93 15.79 35.93 15C35.93 14.2 35.6 13.44 35.02 12.87C34.43 12.31 33.64 12 32.81 12Z" fill="#1074D8" fill-opacity="1.000000" fill-rule="nonzero"/>
	</g>
</svg>
